<?xml version="1.0" encoding="UTF-8" standalone="no"?>
<svg
   xmlns:dc="http://purl.org/dc/elements/1.1/"
   xmlns:cc="http://creativecommons.org/ns#"
   xmlns:rdf="http://www.w3.org/1999/02/22-rdf-syntax-ns#"
   xmlns:svg="http://www.w3.org/2000/svg"
   xmlns="http://www.w3.org/2000/svg"
   version="1.1"
   id="svg4246"
   viewBox="0 0 148.39435 148.15865"
   height="41.813663mm"
   width="41.880184mm">
  <defs
     id="defs4248" />
  <metadata
     id="metadata4251">
    <rdf:RDF>
      <cc:Work
         rdf:about="">
        <dc:format>image/svg+xml</dc:format>
        <dc:type
           rdf:resource="http://purl.org/dc/dcmitype/StillImage" />
        <dc:title></dc:title>
      </cc:Work>
    </rdf:RDF>
  </metadata>
  <g
     transform="translate(911.34007,36.00283)"
     id="layer1">
    <g
       transform="matrix(1.1820746,0,0,1,-1267.7793,-439.8631)"
       id="g4210">
      <path
         id="path4214"
         d="m 352.68975,535.10126 c -18.68381,-8.87221 -29.54491,-18.24869 -35.03908,-30.24956 l -2.95927,-6.46388 0.33288,-34.21816 0.33287,-34.21815 10.625,-5.23708 c 25.24364,-12.44262 55.94517,-11.75313 80.625,1.81067 l 6.25,3.43494 0.33345,32.90936 c 0.42532,41.9759 -0.94191,46.76589 -17.00282,59.56814 -18.36747,14.64082 -31.36551,18.42498 -43.49803,12.66372 z m 35.8422,-19.55016 c 6.37225,-3.25088 6.27421,-3.65467 -1.92777,-7.94033 -8.16457,-4.26612 -8.46596,-5.67807 -1.98903,-9.31831 40.22144,-22.60571 10.52016,-78.95562 -34.31696,-65.10685 l -8.44729,2.60911 -6.60173,6.60173 -6.60174,6.60173 -2.11601,7.27884 c -6.66635,22.93143 6.58289,44.14402 29.01832,46.45956 l 6.72432,0.69401 9.66654,7.29037 c 11.13217,8.39572 10.1581,8.11214 16.59135,4.83014 z m -29.8963,-18.75821 c -5.80266,-1.32736 -10.1307,-4.82524 -13.19273,-10.66224 l -2.58577,-4.92914 0,-13.75 0,-13.75 3.125,-5.51427 c 10.69281,-18.86818 33.96478,-13.85661 38.9425,8.38618 l 1.51618,6.775 -1.35384,9.39744 c -2.46861,17.13543 -13.36425,27.04071 -26.45134,24.04703 z M 301.537,459.32651 c 0,-20.96875 0.17106,-29.54688 0.38013,-19.0625 0.20907,10.48437 0.20907,27.64062 0,38.125 -0.20907,10.48437 -0.38013,1.90625 -0.38013,-19.0625 z m 124.99897,0.625 c -5.6e-4,-20.625 0.17069,-29.23789 0.38055,-19.13976 0.20987,10.09813 0.21033,26.97313 0.001,37.5 -0.20931,10.52687 -0.38101,2.26476 -0.38158,-18.36024 z"
         style="fill:#e42437" />
      <path
         id="path4212"
         d="m 350.54818,547.50628 c -22.89479,-10.31107 -38.78127,-23.37639 -45.20704,-37.17906 l -3.08457,-6.62571 -0.004,-41.25 -0.004,-41.25 4.05459,-2.35049 c 6.81845,-3.95271 20.96421,-9.47343 31.52408,-12.30301 l 10.03053,-2.68774 16.875,0.0567 16.875,0.0567 11.25,3.32492 c 6.1875,1.82871 16.03125,5.70495 21.875,8.61388 l 10.625,5.28896 0,41.25 0,41.25 -2.8364,6.15043 c -6.45572,13.99854 -18.74347,24.56012 -40.9136,35.16613 -18.68928,8.94079 -17.02727,8.80764 -31.05897,2.48821 z m 28.55897,-14.4548 c 30.85306,-15.33375 34.56182,-22.97055 34.08345,-70.18208 l -0.33345,-32.90936 -6.25,-3.43494 c -24.67983,-13.5638 -55.38136,-14.25329 -80.625,-1.81067 l -10.625,5.23708 -0.33287,34.21815 -0.33288,34.21816 2.95927,6.46388 c 5.49417,12.00087 16.35527,21.37735 35.03908,30.24956 10.61008,5.03831 12.44134,4.89622 26.4174,-2.04978 z"
         style="fill:#140b0c" />
    </g>
  </g>
</svg>
