<?xml version="1.0" encoding="UTF-8" standalone="no"?>
<svg
   xmlns:dc="http://purl.org/dc/elements/1.1/"
   xmlns:cc="http://creativecommons.org/ns#"
   xmlns:rdf="http://www.w3.org/1999/02/22-rdf-syntax-ns#"
   xmlns:svg="http://www.w3.org/2000/svg"
   xmlns="http://www.w3.org/2000/svg"
   width="239.84479mm"
   height="208.23883mm"
   viewBox="0 0 849.84374 737.85412"
   id="svg2"
   version="1.1">
  <defs
     id="defs4" />
  <metadata
     id="metadata7">
    <rdf:RDF>
      <cc:Work
         rdf:about="">
        <dc:format>image/svg+xml</dc:format>
        <dc:type
           rdf:resource="http://purl.org/dc/dcmitype/StillImage" />
        <dc:title></dc:title>
      </cc:Work>
    </rdf:RDF>
  </metadata>
  <g
     style="fill:#0099ff;fill-opacity:1"
     id="layer1"
     transform="translate(54.28571,-240.08935)">
    <path
       style="fill:#0099ff;fill-opacity:1"
       d="m 10.624493,976.9015 c -7.1626592,-1.19321 -15.7555217,-4.24655 -22.722703,-8.07416 l -6.09375,-3.34775 -8.465764,-8.53414 -8.465763,-8.53413 -3.873939,-7.5 C -65.768648,889.08185 -42.666803,821.50554 6.4183713,808.06342 l 7.2646687,-1.98945 16.40625,-0.008 16.40625,-0.008 8.4375,2.56329 c 4.640625,1.40981 11.179688,4.07922 14.53125,5.93203 l 6.09375,3.36873 7.049044,7.1204 7.049043,7.1204 3.878813,7.5 c 4.370016,8.44918 7.80435,18.21224 7.80435,22.18547 l 0,2.65766 -1.17187,0.0291 c -0.644536,0.016 -11.291293,1.03946 -23.659449,2.27435 l -22.487578,2.24525 -1.184297,-0.98289 c -0.651375,-0.54056 -1.184306,-1.75912 -1.184306,-2.70789 0,-0.94878 -0.906328,-4.16666 -2.014069,-7.15084 l -2.014059,-5.42579 -3.848409,-3.87645 -3.8484,-3.87645 -3.746907,-1.04019 c -4.727268,-1.31236 -8.362556,-1.31633 -13.121906,-0.0144 l -3.75,1.02589 -4.390987,4.52632 -4.390997,4.52631 -2.5404191,7.80194 -2.5404188,7.80195 -0.4452,17.49343 -0.4452,17.49343 1.0883625,6.24987 c 2.3047407,13.23477 6.7778064,20.53857 15.3582564,25.07753 l 3.931603,2.07978 7.03125,0 7.03125,0 3.838763,-2.03241 c 6.907781,-3.65729 12.979181,-13.2122 11.253253,-17.70989 l -0.501919,-1.30796 -13.054125,0 -13.054116,0 -0.569053,-1.48293 c -0.847922,-2.20963 -0.660206,-31.6095 0.210581,-32.98123 l 0.750919,-1.18292 36.969094,0.24542 36.969103,0.24541 0,46.40625 0,46.40625 -11.815941,0.26136 -11.815931,0.26136 -0.913256,-1.19886 c -0.502294,-0.65938 -1.669594,-3.30824 -2.594016,-5.88636 -0.924412,-2.57813 -2.282784,-5.65255 -3.01859,-6.83206 l -1.337841,-2.14455 -5.345963,4.77808 c -6.726234,6.01173 -16.371449,10.74152 -25.697062,12.60124 l -7.2261,1.44104 -8.24265,-0.10959 c -4.533459,-0.0603 -10.462744,-0.47944 -13.176197,-0.93148 z M 176.77552,772.40385 c -0.24678,-0.64901 -0.34042,-75.43003 -0.20808,-166.18003 l 0.2406,-165 50.625,0 50.625,0 0,165.9375 0,165.9375 -50.41692,0.24253 -50.41691,0.24253 -0.44869,-1.18003 z m 153.74656,7.8e-4 c -0.24899,-0.64944 -0.34276,-20.58706 -0.20838,-44.30581 l 0.24434,-43.125 45.9375,0 45.9375,0 0,44.0625 0,44.0625 -45.72912,0.24331 -45.72912,0.24331 -0.45272,-1.18081 z m 184.69435,-3.3e-4 c -0.24509,-0.64926 -0.54974,-57.50079 -0.67701,-126.33673 l -0.23138,-125.15625 -34.21875,-0.46875 -34.21875,-0.46875 0,-39.375 0,-39.375 117.1875,0 117.1875,0 0,39.375 0,39.375 -34.21875,0.46875 -34.21875,0.46875 -0.46875,126.09375 -0.46875,126.09375 -47.60424,0.24298 -47.60425,0.24298 -0.44562,-1.18048 z m 188.43065,3.3e-4 c -0.24899,-0.64944 -0.34276,-20.58706 -0.20838,-44.30581 l 0.24434,-43.125 45.9375,0 45.9375,0 0,44.0625 0,44.0625 -45.72912,0.24331 -45.72912,0.24331 -0.45272,-1.18081 z M -41.660592,689.91105 c -0.249051,-0.65298 -0.343932,-38.10129 -0.210844,-83.21848 l 0.241976,-82.03125 44.53125,0 44.53125,0 6.557972,1.23935 c 23.323575,4.40775 38.841431,17.51267 44.052215,37.20233 l 1.487522,5.62082 0.03928,8.4375 c 0.16544,35.52613 -23.223225,52.94287 -71.121375,52.96167 -9.925782,0.004 -18.137457,0.11255 -18.248166,0.24145 -0.110709,0.12891 -0.4271156,13.73438 -0.703125,30.23438 l -0.5018344,30 -25.1016556,0.24973 -25.101655,0.24973 -0.452821,-1.18723 z m 82.062382,-98.2411 4.21875,-2.32113 2.109375,-4.18302 c 2.564306,-5.08518 2.650088,-9.5353 0.28425,-14.74635 l -1.78395,-3.92938 -4.054838,-2.13347 -4.054837,-2.13348 -13.59375,-0.0309 -13.59375,-0.0309 -0.2591813,14.96237 c -0.1425468,8.2293 -0.031969,15.55438 0.2456625,16.27796 l 0.5048348,1.31558 12.879346,-0.36307 12.879338,-0.36308 4.21875,-2.32113 z M -11.172579,404.89569 C -12.547319,401.70616 -54.28571,243.85421 -54.28571,241.84457 l 0,-1.74669 23.671875,0.25047 23.671875,0.25047 6.32893125,25.78125 C 2.86789,280.55976 7.9054338,301.13448 10.581518,312.10168 l 4.865606,19.94037 0.982397,-0.32747 c 0.540319,-0.18011 5.706356,-20.27505 11.480091,-44.65543 5.773725,-24.38038 10.722272,-44.91321 10.996762,-45.62852 l 0.499069,-1.30056 19.661597,0 19.661597,0 0.497278,0.80462 c 0.273506,0.44254 5.586422,20.58707 11.806491,44.76562 6.220068,24.17856 11.547464,44.74176 11.838674,45.696 l 0.52946,1.73501 0.86564,-0.86564 c 0.4761,-0.4761 5.82947,-21.29592 11.89637,-46.26625 l 11.03074,-45.40061 18.64637,-0.25475 18.64638,-0.25475 0.82541,0.82541 0.8254,0.8254 -21.69393,81.90811 c -11.93166,45.04946 -21.89538,82.23407 -22.14161,82.63247 -0.24622,0.3984 -9.9254,0.72436 -21.5093,0.72436 l -21.061626,0 -0.771506,-2.10938 c -0.424332,-1.16015 -5.548379,-20.99944 -11.386763,-44.0873 l -10.615247,-41.97793 -0.992147,0.33072 c -0.545681,0.18189 -5.482087,19.09651 -10.96979,42.03249 -5.487713,22.93598 -10.271128,42.62644 -10.629816,43.75659 l -0.652181,2.05481 -21.988172,0 -21.988172,0 -0.909169,-2.10937 z"
       id="path4230" />
  </g>
</svg>
